<svg width="20" height="13" viewBox="0 0 20 13" fill="none" xmlns="http://www.w3.org/2000/svg">
<path d="M18.3314 5.81396H16.6667V4.31396C16.6667 3.48553 15.9205 2.81396 15 2.81396H9.44445L7.22223 0.813965H1.66667C0.746181 0.813965 0 1.48553 0 2.31396V11.314C0 12.1424 0.746181 12.814 1.66667 12.814H15.5556C15.8382 12.814 16.1163 12.7493 16.3635 12.6259C16.6108 12.5026 16.8191 12.3247 16.9689 12.109L19.7447 8.10896C20.4373 7.11156 19.6392 5.81396 18.3314 5.81396ZM1.875 2.31396H6.53188L8.7541 4.31396H14.7917C14.8469 4.31396 14.8999 4.33372 14.939 4.36888C14.9781 4.40405 15 4.45174 15 4.50146V5.81396H5.27778C4.99067 5.81397 4.70844 5.88072 4.45842 6.00775C4.20841 6.13478 3.99909 6.31779 3.85077 6.53903L1.66667 9.79675V2.50125C1.66667 2.47663 1.67206 2.45226 1.68253 2.42953C1.693 2.40679 1.70835 2.38613 1.7277 2.36874C1.74705 2.35135 1.77002 2.33756 1.79529 2.32816C1.82057 2.31876 1.84765 2.31394 1.875 2.31396ZM15.5556 11.314H2.5L5.18174 7.31396H18.3333L15.5556 11.314Z" fill="#162668"/>
</svg>
