<svg width="10" height="10" viewBox="0 0 10 10" fill="none" xmlns="http://www.w3.org/2000/svg">
<path d="M5 0C6.7259 0 8.125 1.3991 8.125 3.125C8.125 4.8509 6.7259 6.25 5 6.25C3.2741 6.25 1.875 4.8509 1.875 3.125C1.875 1.3991 3.2741 0 5 0ZM8.57975 6.51994L7.18691 6.17174C5.72357 7.22428 3.94984 6.98939 2.81309 6.17174L1.42025 6.51994C0.585566 6.72861 0 7.47857 0 8.33896V9.0625C0 9.58027 0.419727 10 0.9375 10H9.0625C9.58027 10 10 9.58027 10 9.0625V8.33896C10 7.47857 9.41443 6.72861 8.57975 6.51994Z" fill="#90A4AE"/>
</svg>
